<svg xmlns="http://www.w3.org/2000/svg" viewBox="0 0 600 600" overflow="hidden" preserveAspectRatio="xMidYMid meet" id="eaf-1545-0"><!-- Created with Expressive Animator v1.6.0 | https://expressive.app/expressive-animator/ --><defs><clipPath id="eaf-1545-1"><rect x="0" y="0" width="600" height="600"></rect></clipPath><radialGradient gradientUnits="userSpaceOnUse" gradientTransform="matrix(1 0 0 2.3259 0 -208.7371)" cx="-498.0559" cy="157.4253" r="130.1578" id="eaf-1545-2"><stop stop-color="#002529" offset="0.4"></stop><stop stop-color="#f5f5f5" offset="0.85"></stop><animate keyTimes="0;1" calcMode="spline" keySplines="0.76 0.017 0.235 0.95" dur="1500ms" repeatCount="indefinite" attributeName="cx" values="-498.0559;101.9441"></animate><animate keyTimes="0;1" calcMode="spline" keySplines="0.76 0.017 0.235 0.95" dur="1500ms" repeatCount="indefinite" attributeName="cy" values="157.4253;156.9612"></animate></radialGradient></defs><g clip-path="url('#eaf-1545-1')" style="isolation: isolate;"><g><path fill="url('#eaf-1545-2')" d="m0 0c2.761 1.8211 4.521 3.042 6 6c0.7242 7.2423 -1.6306 12.0394 -6.0352 17.543c-1.2309 1.451 -2.4623 2.9017 -3.7034 4.344c-5.6479 6.6191 -10.5888 13.7467 -15.6277 20.8323c-1.5087 2.1061 -3.0376 4.1947 -4.5791 6.2769c-7.4728 10.1288 -14.5077 20.5355 -21.4922 31.0039c-0.4787 0.7163 -0.9574 1.4327 -1.4507 2.1707c-5.2291 7.833 -10.3895 15.6757 -15.1118 23.8293c9.7753 -1.1572 19.4069 -2.7318 29.0571 -4.6787c12.7281 -2.4524 12.7281 -2.4524 17.9429 -1.3213c2.1457 2.2567 2.9819 3.2948 3.0625 6.4375c-1.4936 3.6022 -3.8219 5.5457 -7.0625 7.5625c-3.588 1.419 -7.2652 2.3586 -11 3.3125c-1.6156 0.4458 -1.6156 0.4458 -3.2639 0.9006c-5.5324 1.5097 -11.0684 2.8835 -16.6848 4.0357c-16.4773 2.6206 -16.4773 2.6206 -29.1745 12.1054c-1.5296 2.7433 -2.7923 5.5295 -3.949 8.4485c-1.2833 3.0394 -2.9501 5.7908 -4.6335 8.6226c-15.6749 26.6423 -27.3556 57.0671 -32.2942 87.5747c-0.1985 1.1627 -0.397 2.3255 -0.6016 3.5234c-1.4901 13.0016 -2.3744 28.7548 4.7891 40.2266c2.423 4.3448 2.5162 6.3239 1.8125 11.25c-2.9314 4.5696 -5.8419 7.2806 -11 9c-8.0564 1.1436 -14.3361 -0.3409 -21 -5c-8.4212 -7.108 -12.2673 -17.8014 -13.7187 -28.4922c-1.6107 -20.0894 1.0657 -38.5589 7.7188 -57.5078c0.2473 -0.717 0.4947 -1.4341 0.7495 -2.1729c8.2743 -23.8413 18.8621 -46.8504 31.2505 -68.8271c-11.1308 2.4931 -22.1675 5.203 -33.0591 8.6047c-1.5484 0.4732 -3.1034 0.9253 -4.6641 1.3564c-12.3088 3.4151 -18.5503 8.1714 -25.1318 19.1463c-1.9143 3.1638 -4.0133 6.2038 -6.0826 9.2675c-0.8226 1.2454 -1.6445 2.4913 -2.4648 3.7383c-4.6967 7.0784 -9.6677 13.9699 -14.5977 20.8867c-0.9011 1.2669 -1.8021 2.5338 -2.7031 3.8008c-4.4286 6.2195 -8.8871 12.4165 -13.3906 18.582c-1.2366 1.6978 -2.4662 3.4006 -3.6875 5.1094c-5.9399 8.2806 -12.2172 16.2921 -18.501 24.3125c-1.5642 1.9991 -3.1226 4.0024 -4.6787 6.0078c-6.1468 7.9037 -12.4832 15.6195 -19.0391 23.1875c-0.7953 0.9204 -1.5907 1.8408 -2.4102 2.7891c-17.0968 19.4135 -17.0968 19.4135 -29.5898 20.2109c-1.2787 0.0825 -2.5575 0.165 -3.875 0.25c-6.6533 -0.1018 -12.3536 -2.6189 -17.125 -7.25c-2.5301 -4.3374 -3.0681 -8.0882 -2 -13c3.3014 -6.3858 8.1526 -11.2924 13.4727 -16.0391c6.1928 -5.5909 12.1482 -11.3956 18.0466 -17.2949c1.6724 -1.6702 3.3528 -3.3322 5.0334 -4.9941c5.8892 -5.8593 11.3809 -11.8132 16.5588 -18.3179c2.2976 -2.8641 4.7343 -5.5057 7.2634 -8.1665c5.9719 -6.4045 11.3088 -13.2367 16.625 -20.1875c1.0884 -1.4155 2.1769 -2.8309 3.2656 -4.2461c6.3029 -8.2078 12.5482 -16.4577 18.7344 -24.7539c-8.5723 1.9465 -16.0859 5.1577 -23.9375 9.0625c-1.1092 0.5421 -2.2185 1.0841 -3.3613 1.6426c-5.48 2.6792 -5.48 2.6792 -10.916 5.4458c-3.3005 1.5699 -6.1751 1.1356 -9.7852 0.8491c-2.1748 -1.5434 -2.8183 -2.6367 -4 -5c-0.0791 -7.9081 2.6758 -12.6417 8.0195 -18.3242c4.1881 -4.1382 8.8201 -6.7178 14.043 -9.3633c0.9801 -0.5047 1.9602 -1.0095 2.97 -1.5295c10.7319 -5.3872 21.8541 -9.7605 33.0417 -14.0916c1.1576 -0.4509 2.3152 -0.9017 3.5078 -1.3662c2.2788 -0.8835 4.5628 -1.754 6.8516 -2.6113c1.0673 -0.4147 2.1347 -0.8295 3.2344 -1.2568c0.9426 -0.3573 1.8851 -0.7146 2.8562 -1.0828c4.8775 -2.7074 6.8673 -7.6394 9.4758 -12.3743c1.1365 -1.6757 2.274 -3.3509 3.4338 -5.0105c6.5311 -9.3878 11.9133 -19.3845 17.2444 -29.488c1.1292 -2.137 2.275 -4.2636 3.4272 -6.3882c5.8653 -11.148 13.6039 -27.1116 11.8945 -40.1133c-1.5423 -3.3049 -2.9704 -4.5716 -6.3281 -5.9687c-12.9722 -4.0028 -25.651 -1.4999 -38.6719 0.9688c-0.7697 0.145 -1.5395 0.29 -2.3325 0.4395c-48.4879 9.5264 -103.5111 30.5786 -141.6675 62.5605c-1.2491 1.0306 -1.2491 1.0306 -2.5234 2.082c-11.048 9.4721 -17.2287 20.4833 -21.4766 34.293c-1.8503 5.7366 -4.0096 8.9724 -9.375 11.9375c-5.8784 1.5396 -10.4922 0.965 -15.7617 -1.9102c-3.957 -2.9781 -6.0975 -7.1639 -7.6758 -11.7773c-0.0928 -1.2994 -0.0928 -1.2994 -0.1875 -2.625c-0.0928 -1.0248 -0.0928 -1.0248 -0.1875 -2.0703c-0.8668 -16.8483 8.8591 -30.5885 19.6401 -42.54c17.5051 -19.0087 40.4024 -32.444 63.5952 -43.4585c1.9792 -0.9441 3.9464 -1.9105 5.9131 -2.8804c35.2052 -17.1876 73.5087 -28.4219 112.0391 -35.0508c0.7486 -0.1289 1.4973 -0.2578 2.2686 -0.3906c22.148 -3.6822 44.9521 -5.1071 65.0439 6.2656c8.0833 6.3914 14.1043 13.6186 15.6875 24.125c0.8139 9.7002 -0.8571 17.8542 -4 27c-0.3215 0.9496 -0.3215 0.9496 -0.6494 1.9185c-3.5895 10.489 -8.2052 20.2774 -13.3506 30.0815c-0.8412 1.6146 -1.6823 3.2292 -2.5234 4.8438c-4.4087 8.4319 -8.9055 16.8111 -13.4766 25.1563c1.0277 -0.2872 2.0554 -0.5744 3.1143 -0.8704c3.8687 -1.0807 7.738 -2.1593 11.6074 -3.2373c1.6642 -0.4639 3.3283 -0.9285 4.9922 -1.3936c1.6161 -0.4517 3.2326 -0.9024 4.8493 -1.352c1.5907 -0.4434 3.1803 -0.8904 4.769 -1.341c4.4897 -1.2603 8.9529 -2.2523 13.5351 -3.1339c3.8933 -0.9656 5.8176 -1.7892 8 -5.1992c0.7065 -1.4525 1.3742 -2.9244 2.0078 -4.4102c0.8007 -1.6367 1.6124 -3.268 2.4336 -4.8945c0.6378 -1.2735 0.6378 -1.2735 1.2886 -2.5728c2.4244 -4.4851 5.3712 -8.5833 8.3403 -12.7202c0.602 -0.8424 1.204 -1.6848 1.8242 -2.5527c1.1899 -1.6625 2.3814 -3.3238 3.5747 -4.9839c1.9619 -2.7578 3.8585 -5.5551 5.7483 -8.3625c9.8157 -14.5554 20.5739 -28.576 31.9153 -41.9758c0.6714 -0.7966 0.6714 -0.7966 1.3564 -1.6094c3.0179 -3.5756 6.0616 -7.1273 9.1338 -10.6562c0.9885 -1.1356 1.9743 -2.2735 2.957 -3.4141c17.8139 -20.5981 17.8139 -20.5981 30.5527 -17.3203z" transform="translate(498.0559 143.6764)"></path></g></g></svg>